<?xml version="1.0" standalone="no"?>
<!DOCTYPE svg PUBLIC "-//W3C//DTD SVG 20010904//EN"
 "http://www.w3.org/TR/2001/REC-SVG-20010904/DTD/svg10.dtd">
<svg version="1.0" xmlns="http://www.w3.org/2000/svg"
 width="999.000000pt" height="999.000000pt" viewBox="0 0 999.000000 999.000000"
 preserveAspectRatio="xMidYMid meet">
<metadata>
Created by potrace 1.11, written by Peter Selinger 2001-2013
</metadata>
<g transform="translate(0.000000,999.000000) scale(0.100000,-0.100000)"
fill="#000000" stroke="none">
<path d="M4719 9986 c-2 -2 -49 -7 -104 -10 -55 -3 -116 -8 -135 -11 -19 -3
-57 -7 -85 -10 -27 -3 -61 -8 -75 -10 -14 -2 -45 -6 -70 -10 -125 -18 -144
-22 -285 -51 -207 -43 -584 -152 -690 -199 -16 -7 -41 -16 -55 -20 -113 -35
-496 -216 -698 -331 -500 -286 -1002 -706 -1353 -1134 -30 -36 -56 -67 -59
-70 -3 -3 -47 -60 -98 -128 -298 -398 -555 -873 -707 -1305 -40 -113 -113
-341 -119 -372 -3 -11 -18 -74 -35 -140 -17 -66 -40 -169 -51 -230 -11 -60
-22 -119 -24 -130 -4 -21 -15 -91 -21 -135 -2 -14 -6 -54 -10 -90 -4 -36 -8
-76 -10 -90 -27 -173 -27 -784 -1 -1025 2 -16 7 -59 11 -95 4 -36 8 -67 10
-70 1 -3 6 -30 9 -61 4 -31 8 -65 10 -75 2 -11 11 -59 20 -109 9 -49 28 -137
42 -195 14 -58 27 -112 29 -120 8 -40 39 -152 62 -224 191 -614 486 -1169 882
-1661 58 -71 110 -135 115 -141 6 -6 44 -48 85 -93 117 -130 290 -299 421
-412 41 -35 77 -67 80 -70 26 -29 290 -224 425 -313 279 -185 463 -286 750
-413 242 -107 622 -239 775 -269 14 -2 31 -7 39 -10 16 -5 169 -40 216 -48 17
-3 80 -14 140 -25 115 -20 129 -22 323 -45 228 -28 874 -29 1032 -2 14 3 52 7
85 11 33 3 87 10 120 15 33 5 80 12 105 15 99 14 400 80 525 116 841 241 1573
670 2186 1282 86 85 224 234 269 290 14 17 48 58 76 91 319 384 618 907 806
1411 68 181 177 553 194 660 2 11 14 76 28 145 26 132 43 245 52 345 3 32 7
62 9 65 18 29 27 744 12 905 -4 44 -10 103 -12 130 -12 127 -44 347 -65 439
-5 22 -12 57 -15 76 -7 41 -71 301 -85 345 -95 303 -140 431 -191 542 -10 24
-19 45 -19 47 0 15 -160 342 -223 456 -46 84 -145 247 -200 330 -54 80 -167
242 -177 250 -3 3 -24 30 -46 60 -23 30 -50 65 -60 77 -11 11 -35 41 -54 65
-19 23 -78 90 -130 148 -348 383 -747 707 -1188 964 -146 85 -483 256 -504
256 -8 0 -18 4 -24 9 -36 35 -592 226 -744 257 -14 2 -31 7 -39 10 -18 6 -173
41 -221 49 -19 3 -53 10 -75 15 -22 5 -65 12 -95 15 -30 4 -57 8 -60 10 -3 2
-27 6 -55 9 -27 3 -66 8 -85 11 -35 4 -120 14 -195 21 -52 6 -691 14 -696 10z
m586 -1279 c45 -7 173 -23 255 -33 79 -8 89 -10 150 -22 30 -6 66 -14 80 -16
14 -2 48 -10 75 -16 28 -6 57 -13 65 -15 8 -2 62 -17 120 -34 520 -151 951
-384 1365 -736 532 -454 901 -997 1119 -1648 34 -103 109 -392 121 -467 3 -19
8 -46 10 -60 8 -38 12 -61 19 -105 6 -40 8 -58 20 -165 4 -30 9 -73 13 -95 3
-22 6 -150 6 -285 0 -214 -4 -295 -18 -384 -2 -11 -11 -73 -20 -136 -9 -63
-23 -145 -31 -182 -7 -37 -16 -82 -19 -100 -22 -125 -107 -402 -177 -578 -189
-476 -462 -886 -837 -1260 -369 -367 -781 -637 -1260 -825 -201 -79 -491 -162
-661 -189 -19 -3 -44 -7 -55 -10 -41 -8 -135 -22 -214 -31 -30 -4 -63 -9 -75
-12 -12 -3 -145 -8 -296 -10 -271 -5 -278 -4 -455 26 -99 16 -202 33 -230 36
-353 45 -842 217 -1212 426 -422 239 -759 532 -1089 945 -237 299 -480 749
-604 1123 -69 208 -121 425 -144 591 -2 19 -8 58 -11 85 -4 28 -8 61 -10 75
-33 227 -16 757 30 990 3 14 12 66 21 115 68 391 234 837 442 1185 159 267
341 500 577 735 307 308 609 529 974 710 283 141 649 266 911 310 19 3 42 8
50 10 8 2 42 7 75 10 33 4 71 8 85 10 14 2 52 7 85 10 33 4 67 8 75 10 8 2 40
7 70 10 30 4 56 8 57 9 5 4 514 -2 548 -7z"/>
<path d="M4839 8193 c-113 -100 -257 -242 -340 -334 -253 -283 -488 -651 -657
-1030 l-30 -66 72 -23 c39 -12 82 -26 96 -31 94 -33 410 -99 545 -114 33 -4
68 -9 77 -10 13 -3 232 -17 258 -17 39 -1 37 -44 37 837 0 459 -1 835 -2 835
-2 0 -27 -21 -56 -47z"/>
<path d="M5136 7407 c0 -453 4 -828 7 -834 10 -16 237 -6 377 17 30 5 73 12
95 15 22 3 47 7 55 10 8 2 33 6 55 10 22 3 69 13 105 21 36 9 75 17 86 20 77
15 304 90 304 100 0 12 -136 291 -189 390 -87 161 -234 379 -366 544 -124 156
-494 530 -524 530 -3 0 -6 -371 -5 -823z"/>
<path d="M4320 8155 c-115 -25 -274 -70 -390 -110 -67 -24 -103 -38 -230 -93
-230 -98 -508 -271 -735 -458 -156 -128 -201 -171 -190 -182 36 -34 315 -218
430 -284 63 -36 323 -164 351 -172 19 -6 34 17 139 211 65 120 136 247 157
282 21 34 38 65 38 67 0 10 168 255 239 349 41 55 131 169 198 253 68 84 123
155 123 158 0 7 -18 4 -130 -21z"/>
<path d="M5580 8173 c0 -4 86 -103 149 -172 13 -14 35 -42 50 -61 14 -19 29
-37 32 -40 3 -3 39 -50 81 -105 118 -158 233 -335 341 -525 26 -46 157 -307
157 -313 0 -3 11 -30 26 -60 l25 -56 62 26 c215 92 489 253 703 415 l54 40
-28 32 c-15 18 -45 46 -67 64 -22 17 -53 43 -70 58 -199 176 -564 398 -830
504 -175 71 -464 157 -585 176 -19 3 -50 9 -67 14 -18 5 -33 6 -33 3z"/>
<path d="M7359 7091 c-177 -136 -413 -280 -642 -390 -119 -58 -159 -81 -163
-98 -3 -12 8 -64 24 -115 54 -166 98 -328 123 -443 7 -33 14 -64 15 -70 34
-150 64 -377 79 -605 4 -58 9 -113 11 -123 1 -10 4 -45 5 -77 l2 -60 721 2
721 3 -1 25 c-34 592 -211 1137 -531 1627 -56 86 -208 291 -260 350 l-28 33
-76 -59z"/>
<path d="M2538 7078 c-278 -330 -504 -746 -623 -1147 -40 -133 -90 -354 -100
-440 -4 -30 -8 -62 -10 -71 -7 -36 -18 -178 -19 -240 l-1 -65 713 0 712 0 5
30 c2 16 7 77 11 135 13 219 18 260 49 470 2 14 7 41 10 60 4 19 8 46 10 60 5
38 76 354 82 363 2 4 6 18 9 31 5 28 54 190 82 268 11 32 18 66 15 76 -5 21
-9 23 -121 71 -41 18 -149 77 -240 133 -92 55 -179 108 -194 117 -15 9 -96 58
-180 109 -85 50 -157 92 -160 92 -3 0 -26 -24 -50 -52z"/>
<path d="M3711 6506 c-19 -48 -107 -341 -116 -386 -2 -8 -17 -78 -34 -155 -16
-77 -32 -158 -35 -180 -4 -23 -8 -50 -10 -60 -4 -19 -8 -54 -21 -155 -18 -140
-32 -379 -26 -440 1 -13 86 -15 714 -15 l712 0 1 603 1 602 -36 1 c-20 0 -47
2 -61 4 -14 2 -63 6 -110 9 -78 6 -123 10 -205 21 -27 4 -204 35 -280 50 -80
15 -280 67 -365 94 -114 37 -118 37 -129 7z"/>
<path d="M6276 6522 c-3 -3 -131 -35 -186 -47 -8 -2 -70 -17 -137 -33 -136
-34 -340 -70 -498 -88 -33 -3 -67 -8 -75 -9 -9 -2 -60 -9 -115 -15 -55 -7
-105 -16 -110 -20 -7 -6 -10 -210 -9 -592 1 -321 2 -588 3 -593 1 -7 244 -10
712 -10 l710 0 -6 115 c-3 63 -8 140 -11 170 -2 30 -7 75 -9 100 -2 25 -6 61
-9 80 -3 19 -7 57 -10 84 -3 27 -10 74 -16 105 -5 31 -12 72 -15 91 -3 19 -8
42 -10 50 -2 8 -7 31 -10 50 -10 61 -65 271 -97 375 -18 55 -32 102 -33 105
-16 62 -30 88 -47 87 -10 -1 -21 -3 -22 -5z"/>
<path d="M3465 4735 c3 -78 8 -153 10 -166 2 -13 7 -55 11 -94 11 -115 15
-143 41 -285 8 -47 17 -96 20 -110 13 -72 68 -291 104 -410 41 -135 135 -399
147 -412 4 -4 57 7 117 23 103 27 361 82 450 94 22 4 51 8 65 10 14 3 50 7 80
10 30 4 62 8 70 10 8 2 56 7 105 11 50 4 104 8 120 9 17 2 42 3 58 4 l27 1 0
724 0 724 -716 0 -716 -1 7 -142z"/>
<path d="M6809 4856 c-1 -11 -3 -50 -4 -86 -5 -89 -14 -219 -20 -255 -2 -16
-7 -56 -10 -88 -4 -32 -8 -66 -10 -76 -2 -10 -6 -42 -10 -71 -4 -29 -9 -62
-11 -74 -2 -12 -9 -48 -14 -81 -46 -258 -132 -567 -226 -813 -24 -63 -44 -119
-44 -125 0 -7 31 -28 68 -48 55 -29 296 -162 728 -400 l51 -28 50 52 c65 69
158 178 215 253 57 75 188 263 188 271 0 3 8 17 19 31 42 61 150 269 204 397
58 136 136 363 151 442 2 10 11 45 19 78 20 77 54 263 63 340 3 33 8 69 10 80
2 10 6 65 10 121 l6 102 -716 0 -716 0 -1 -22z"/>
<path d="M1785 4858 c2 -7 6 -51 9 -98 11 -154 22 -247 43 -345 2 -11 6 -33 8
-50 4 -32 8 -48 50 -211 98 -388 292 -784 552 -1124 75 -100 88 -115 181 -219
31 -35 64 -72 73 -82 16 -18 24 -14 205 84 104 57 236 129 294 159 249 134
375 207 373 220 -1 7 -27 81 -58 163 -94 245 -175 535 -216 775 -7 41 -13 77
-14 80 -1 3 -5 32 -9 65 -5 33 -10 68 -12 77 -1 9 -6 48 -9 85 -4 37 -8 79
-10 93 -4 27 -16 217 -19 290 l-1 45 -722 3 c-576 2 -722 0 -718 -10z"/>
<path d="M5139 4850 c0 -11 0 -333 0 -715 0 -382 0 -699 0 -704 1 -5 36 -10
79 -11 42 0 93 -3 112 -5 19 -2 67 -6 105 -9 96 -8 282 -35 360 -53 11 -2 31
-6 45 -9 57 -11 231 -55 307 -77 74 -22 83 -23 88 -8 53 131 169 478 179 533
1 7 5 22 9 33 3 11 8 31 11 45 2 14 13 61 25 105 50 195 94 519 107 778 l5
117 -715 0 c-709 0 -716 0 -717 -20z"/>
<path d="M4727 3184 c-1 -1 -36 -4 -77 -7 -75 -6 -272 -32 -320 -43 -14 -2
-56 -11 -95 -19 -146 -30 -325 -80 -325 -92 0 -9 95 -183 158 -288 110 -187
213 -333 356 -505 78 -94 393 -414 442 -448 l31 -21 0 714 0 715 -84 -2 c-46
-2 -85 -3 -86 -4z"/>
<path d="M5139 3171 c0 -9 -1 -332 -2 -718 -2 -620 0 -700 13 -693 23 13 183
164 281 265 214 221 398 465 558 738 57 98 131 242 131 255 0 7 -122 46 -180
57 -8 2 -33 8 -55 13 -22 6 -52 14 -67 17 -16 3 -38 7 -50 10 -57 11 -208 36
-253 41 -27 3 -61 7 -75 10 -14 2 -70 6 -125 10 -55 3 -117 7 -137 8 -29 2
-38 -2 -39 -13z"/>
<path d="M3560 2892 c-183 -78 -511 -257 -601 -329 -43 -34 -43 -34 46 -110
269 -229 925 -549 1270 -618 61 -12 176 -21 181 -14 2 4 -20 34 -50 66 -273
294 -514 637 -689 981 -23 46 -36 62 -52 61 -11 0 -58 -17 -105 -37z"/>
<path d="M6235 2728 c-191 -322 -263 -425 -504 -721 -81 -98 -148 -183 -150
-188 -2 -7 4 -9 15 -5 11 3 35 8 54 11 19 3 64 13 100 21 36 9 72 17 80 19 31
7 187 54 248 74 258 87 551 235 772 388 94 66 260 196 260 205 0 11 -97 81
-202 144 -179 109 -485 254 -536 254 -13 0 -54 -61 -137 -202z"/>
</g>
</svg>
